<?xml version="1.0" standalone="no"?>
<!DOCTYPE svg PUBLIC "-//W3C//DTD SVG 20010904//EN"
 "http://www.w3.org/TR/2001/REC-SVG-20010904/DTD/svg10.dtd">
<svg version="1.0" xmlns="http://www.w3.org/2000/svg"
 width="400.000000pt" height="400.000000pt" viewBox="0 0 400.000000 400.000000"
 preserveAspectRatio="xMidYMid meet">
<metadata>
Created by potrace 1.11, written by Peter Selinger 2001-2013
</metadata>
<g transform="translate(0.000000,400.000000) scale(0.100000,-0.100000)"
fill="#000000" stroke="none">
<path d="M1843 3360 c-497 -56 -909 -381 -1077 -848 -90 -252 -94 -561 -10
-818 128 -394 441 -705 832 -828 125 -39 240 -56 382 -56 220 0 391 43 593
147 l108 56 172 -170 c185 -184 210 -200 294 -190 51 5 107 45 137 96 22 38
25 125 6 161 -7 14 -85 100 -172 192 l-159 167 44 58 c252 334 318 786 176
1190 -127 358 -416 648 -777 777 -157 56 -391 84 -549 66z m340 -399 c249 -64
455 -226 576 -453 70 -130 93 -222 98 -388 4 -124 2 -158 -16 -234 -23 -96
-80 -227 -131 -301 l-32 -47 -212 210 c-134 135 -224 217 -248 226 -43 19 -95
20 -135 5 -63 -24 -122 -109 -123 -177 0 -67 27 -104 231 -308 l200 -201 -58
-26 c-125 -56 -206 -72 -363 -72 -110 0 -162 5 -214 19 -272 73 -471 235 -592
481 -218 442 -32 985 411 1200 191 93 409 116 608 66z"/>
</g>
</svg>
