<svg xmlns="http://www.w3.org/2000/svg" width="16" height="16" viewBox="0 0 16 16">
    <path fill="#FFF" fill-rule="nonzero" d="M9.535.23A7.679 7.679 0 0 1 5.82 15.132 7.678 7.678 0 0 1 .23 5.824 7.677 7.677 0 0 1 9.534.23zM7.363 2.678l-.345 1.384a28.19 28.19 0 0 1-.538-.127V3.93L5.32 3.64l-.225.9s.626.143.612.152c.342.085.403.311.393.49L5.706 6.76a.698.698 0 0 1 .087.028l-.089-.022-.55 2.21c-.042.103-.148.259-.387.2.009.012-.612-.153-.612-.153l-.419.964 1.097.274c.204.05.404.104.6.155l-.348 1.4.842.21.345-1.385c.23.062.453.12.672.174l-.345 1.379.843.21.349-1.398c1.437.272 2.517.162 2.972-1.137.366-1.047-.018-1.65-.774-2.044.55-.127.965-.49 1.076-1.237.152-1.022-.626-1.571-1.69-1.938l.346-1.384-.843-.21-.336 1.348a35.25 35.25 0 0 0-.675-.16l.338-1.356-.842-.21zM7.01 7.771c.57.142 2.402.424 2.13 1.516-.26 1.046-2.022.48-2.593.339l.463-1.855zm.63-2.532c.476.119 2.008.34 1.761 1.333-.238.952-1.704.468-2.18.35l.42-1.683z"/>
</svg>
