<svg xmlns="http://www.w3.org/2000/svg" xmlns:xlink="http://www.w3.org/1999/xlink" width="15" height="15" viewBox="0 0 15 15">
    <defs>
        <path id="a" d="M.003.019h14.951v12.644H.004z"/>
    </defs>
    <g fill="none" fill-rule="evenodd" transform="translate(0 1.055)">
        <mask id="b" fill="#fff">
            <use xlink:href="#a"/>
        </mask>
        <path fill="#FFF" d="M14.953 3.187c0 .407.005.781-.004 1.156-.002.057-.053.133-.103.165-.129.083-.27.148-.406.218-.482.249-.69.648-.658 1.183a6.2 6.2 0 0 1-.307 2.414c-.574 1.677-1.653 2.924-3.246 3.7-1.58.768-3.217.836-4.877.272a5.825 5.825 0 0 1-1.595-.844c.396-.202.761-.393 1.132-.574.04-.019.114.01.162.036 2.836 1.485 6.326.084 7.336-2.948.228-.683.288-1.386.235-2.1-.005-.06-.021-.117-.036-.198L.001 12.075c0-.43-.004-.823.005-1.215.001-.047.066-.11.117-.137 1.673-.855 3.349-1.706 5.023-2.558l5.077-2.585 4.613-2.346c.028-.014.06-.024.117-.047M11.155 1.236c-.361.185-.715.373-1.076.547-.052.025-.144.005-.203-.024C7.401.513 4.561 1.283 3.068 3.623c-.606.95-.832 2.005-.76 3.125.005.079.025.156.042.26L14.953.594c0 .429.004.815-.005 1.202 0 .049-.058.116-.107.141-1.66.85-3.324 1.696-4.986 2.542L5.08 6.908.094 9.448c-.022.01-.048.015-.093.03 0-.41-.003-.803.004-1.196.001-.044.057-.1.101-.126.145-.084.297-.154.443-.235.452-.251.647-.647.616-1.15-.103-1.636.347-3.1 1.369-4.377.992-1.24 2.28-2.007 3.85-2.277 1.663-.285 3.203.05 4.615.975.039.026.076.054.112.084.015.012.023.03.044.06" mask="url(#b)"/>
    </g>
</svg>
