<svg xmlns="http://www.w3.org/2000/svg" viewBox="0 0 64 45"><g fill="none" fill-rule="evenodd"><path fill="#FFF" fill-rule="nonzero" d="M64.02 40.78a3.841 3.841 0 01-3.833 3.833H4.735A3.841 3.841 0 01.903 40.78V3.832A3.841 3.841 0 014.735 0h55.433A3.841 3.841 0 0164 3.832v36.949h.02z"/><g fill-rule="nonzero"><path fill="#004E91" d="M51.613 12.465H36.477l-1.548 1.741-4.994 5.633-1.548 1.742H13.445l1.51-1.762.716-.832 1.51-1.761H10.31c-1.258 0-2.284 1.064-2.284 2.342v4.955c0 1.296 1.026 2.342 2.284 2.342h26.36c1.258 0 2.98-.794 3.813-1.742l3.987-4.53 7.142-8.128z"/><path fill="#FD0" d="M54.652 7.18c1.258 0 2.283 1.065 2.283 2.343v4.954c0 1.297-1.025 2.342-2.283 2.342H47.78l1.529-1.742.755-.87 1.529-1.742H36.458l-8.07 9.096h-15.04L24.13 9.368l.406-.465c.852-.948 2.575-1.742 3.833-1.742h26.284v.02z"/></g><path fill="#004E91" fill-rule="nonzero" d="M56.935 37.239v-.716c0-.097-.058-.155-.193-.155h-.465c-.135 0-.232-.02-.251-.078-.039-.058-.039-.174-.039-.367v-2.71h.755c.058 0 .097-.02.135-.058a.176.176 0 00.058-.136v-.754a.176.176 0 00-.058-.136.176.176 0 00-.135-.058h-.755v-.987c0-.058-.02-.097-.039-.116-.038-.02-.077-.039-.116-.039h-.02l-1.122.194a.944.944 0 00-.135.058c-.039.038-.058.077-.058.116v.755h-.755a.176.176 0 00-.136.058.176.176 0 00-.058.135v.62c0 .058.02.096.058.116a.312.312 0 00.136.077l.755.116v2.71c0 .329.038.6.097.813.077.213.174.368.29.484.135.116.29.193.484.232.193.039.426.058.677.058.136 0 .252 0 .368-.02.097-.019.232-.038.368-.057.096 0 .154-.059.154-.155m-4.025-.097v-.832c0-.058-.02-.097-.058-.116a.275.275 0 00-.117-.04h-.019c-.174.02-.348.04-.503.04-.155.019-.368.019-.639.019a.737.737 0 01-.542-.232c-.077-.078-.116-.194-.155-.33a1.948 1.948 0 01-.058-.522v-.774c0-.213.02-.387.058-.523.04-.135.097-.251.155-.329a.737.737 0 01.542-.232c.271 0 .484 0 .639.02.155.019.329.019.503.038h.02c.058 0 .096-.02.116-.039.038-.019.058-.058.058-.116v-.832c0-.077-.02-.116-.039-.136-.039-.019-.077-.058-.155-.077-.135-.039-.29-.058-.503-.097-.213-.038-.445-.038-.736-.038-.658 0-1.18.193-1.587.6-.387.406-.6.987-.6 1.76v.775c0 .755.194 1.355.6 1.761.387.407.93.6 1.587.6.271 0 .523-.019.736-.038.213-.04.387-.058.503-.097a.292.292 0 00.155-.078c.039-.019.039-.077.039-.135m-6.058-.987a2.064 2.064 0 01-.368.135 1.473 1.473 0 01-.407.058c-.193 0-.348-.019-.445-.077-.097-.058-.135-.174-.135-.387v-.078c0-.116.02-.212.038-.29a.501.501 0 01.136-.213.773.773 0 01.252-.135c.096-.02.232-.039.406-.039h.523v1.026zm1.47-2.265c0-.348-.057-.638-.154-.87a1.617 1.617 0 00-.426-.581 1.586 1.586 0 00-.677-.33 3.342 3.342 0 00-.91-.115c-.31 0-.62.019-.91.058-.29.038-.522.077-.697.135-.116.039-.174.097-.174.213v.755c0 .058.02.097.039.135.039.02.077.039.116.039h.039c.077 0 .174-.02.27-.02.117 0 .233-.019.368-.019.136 0 .29-.019.446-.019h.445c.213 0 .387.039.503.116.116.078.194.252.194.523v.329h-.504c-.793 0-1.393.116-1.742.367-.367.252-.542.659-.542 1.2v.078c0 .31.04.561.136.755.097.213.213.367.368.503.155.116.31.213.503.27.193.059.387.078.6.078.27 0 .522-.038.716-.116.194-.077.387-.174.58-.31v.155c0 .058.02.097.059.136a.176.176 0 00.135.058h1.045c.058 0 .097-.02.136-.058a.176.176 0 00.058-.136V33.89h-.02zm-4.974 3.349v-.716c0-.097-.058-.155-.193-.155h-.445c-.136 0-.233-.02-.252-.078-.039-.058-.039-.174-.039-.367v-2.71h.755c.058 0 .097-.02.136-.058a.176.176 0 00.058-.136v-.754a.176.176 0 00-.058-.136.176.176 0 00-.136-.058h-.755v-.987c0-.058-.019-.097-.038-.116-.04-.02-.078-.039-.116-.039h-.02l-1.122.194a.944.944 0 00-.136.058c-.039.038-.058.077-.058.116v.755h-.755a.176.176 0 00-.135.058.176.176 0 00-.058.135v.62c0 .058.019.096.058.116a.312.312 0 00.135.077l.755.116v2.71c0 .329.039.6.097.813.077.213.174.368.29.484.116.116.29.193.484.232.194.039.426.058.677.058.136 0 .252 0 .368-.02.097-.019.232-.038.368-.057.077 0 .135-.059.135-.155m-4.064-.02v-3.096c0-.29-.02-.562-.078-.833a1.892 1.892 0 00-.251-.677 1.127 1.127 0 00-.503-.445c-.213-.116-.484-.174-.833-.174-.29 0-.56.038-.793.116a2.716 2.716 0 00-.736.387v-.232a.176.176 0 00-.058-.136.176.176 0 00-.135-.058h-1.045a.176.176 0 00-.136.058.176.176 0 00-.058.136v4.954c0 .058.02.097.058.136a.176.176 0 00.136.058h1.122c.058 0 .097-.02.136-.058a.176.176 0 00.058-.136v-3.658c.155-.077.31-.155.464-.213.136-.058.29-.077.426-.077s.252.02.348.039c.097.019.155.077.213.135a.565.565 0 01.097.271c.02.116.02.252.02.407v3.096c0 .058.019.097.058.136a.176.176 0 00.135.058h1.123c.058 0 .096-.02.135-.058.078-.039.097-.097.097-.136m-7.045-2.148c0 .755-.271 1.142-.833 1.142-.27 0-.483-.097-.619-.29-.135-.194-.213-.484-.213-.852v-.658c0-.387.078-.658.213-.852.136-.193.348-.29.62-.29.541 0 .832.387.832 1.142v.658zm1.51-.658c0-.368-.059-.716-.155-1.007a2.109 2.109 0 00-.446-.754 1.952 1.952 0 00-.735-.484 2.673 2.673 0 00-1.007-.174c-.387 0-.716.058-1.006.174-.29.116-.542.27-.735.484a2.109 2.109 0 00-.446.754c-.096.29-.154.64-.154 1.007v.658c0 .368.058.716.154 1.006.097.29.252.542.446.755.193.213.445.368.735.484.29.116.62.174 1.006.174.388 0 .717-.058 1.007-.174.29-.116.542-.27.735-.484.194-.213.349-.464.446-.755.096-.29.154-.638.154-1.006v-.658zm-5.188 2.729v-.832c0-.058-.02-.097-.058-.116a.28.28 0 00-.135-.04h-.02c-.174.02-.348.04-.503.04-.155 0-.368.019-.639.019a.737.737 0 01-.542-.232c-.077-.078-.116-.194-.154-.33a1.948 1.948 0 01-.058-.522v-.774c0-.213.019-.387.058-.523.038-.135.096-.251.155-.329a.737.737 0 01.541-.232c.271 0 .484 0 .64.02.154.019.328.019.502.038h.02c.058 0 .097-.02.135-.039.039-.019.058-.058.058-.116v-.832c0-.077-.02-.116-.038-.136-.04-.019-.078-.058-.155-.077-.136-.039-.29-.058-.503-.097-.213-.038-.446-.038-.736-.038-.658 0-1.18.193-1.587.6-.387.406-.6.987-.6 1.76v.775c0 .755.193 1.355.6 1.761.387.407.929.6 1.587.6.271 0 .523-.019.736-.038.212-.04.367-.058.503-.097a.292.292 0 00.155-.078c.038-.019.038-.077.038-.135m-4.567.077v-3.096c0-.29-.02-.562-.078-.833a1.892 1.892 0 00-.251-.677 1.127 1.127 0 00-.504-.445c-.213-.116-.484-.174-.832-.174-.29 0-.561.038-.794.116a2.716 2.716 0 00-.735.387v-.232a.176.176 0 00-.058-.136.176.176 0 00-.136-.058h-1.045a.176.176 0 00-.135.058.176.176 0 00-.058.136v4.954c0 .058.02.097.058.136a.176.176 0 00.135.058h1.123c.058 0 .097-.02.135-.058a.176.176 0 00.058-.136v-3.658c.155-.077.31-.155.465-.213.135-.058.29-.077.426-.077.135 0 .251.02.348.039.097.019.155.077.213.135a.565.565 0 01.097.271c.02.116.02.252.02.407v3.096c0 .058.019.097.057.136a.176.176 0 00.136.058h1.122c.058 0 .097-.02.136-.058.058-.039.097-.097.097-.136m-7.2-1.064a2.064 2.064 0 01-.368.135 1.473 1.473 0 01-.407.058c-.193 0-.348-.019-.445-.077-.097-.058-.135-.174-.135-.387v-.078c0-.116.02-.212.038-.29a.501.501 0 01.136-.213.773.773 0 01.252-.135c.096-.02.232-.039.406-.039h.523v1.026zm1.49-2.265c0-.348-.058-.638-.155-.87a1.617 1.617 0 00-.426-.581 1.586 1.586 0 00-.677-.33 3.342 3.342 0 00-.91-.115c-.31 0-.62.019-.91.058-.29.038-.522.077-.696.135-.116.039-.175.097-.175.213v.755c0 .058.02.097.04.135.038.02.077.039.115.039h.039c.077 0 .174-.02.271-.02.116 0 .232-.019.387-.019.136 0 .29-.019.445-.019h.445c.213 0 .388.039.504.116.116.078.193.252.193.523v.329h-.503c-.794 0-1.394.116-1.742.367-.348.252-.542.659-.542 1.2v.078c0 .31.039.561.136.755.096.213.212.367.367.503.155.116.31.213.504.27.193.059.387.078.6.078.27 0 .522-.038.716-.116.193-.077.387-.174.58-.31v.155c0 .058.02.097.058.136a.176.176 0 00.136.058h1.045c.058 0 .097-.02.136-.058a.176.176 0 00.058-.136V33.89h-.04zm-6.658 1.471a.737.737 0 01-.271.6c-.174.136-.523.213-.987.213h-.774v-1.742h1.045c.367 0 .638.078.774.252a.933.933 0 01.213.58v.097zm-.039-2.767c0 .096-.02.193-.039.29a.494.494 0 01-.154.232 1.026 1.026 0 01-.29.155 1.51 1.51 0 01-.465.058H9.594v-1.606h.716c.484 0 .813.058 1.006.174.194.116.29.31.29.561v.136h-.019zm1.587 2.67c0-.329-.077-.6-.232-.832a1.47 1.47 0 00-.6-.542c.252-.116.445-.31.58-.542.136-.251.213-.522.213-.813v-.174c0-.367-.077-.677-.212-.929-.136-.251-.349-.445-.6-.6-.252-.155-.562-.251-.93-.329a7.534 7.534 0 00-1.2-.097H9.73c-.155 0-.31.02-.464.02a2.9 2.9 0 00-.426.039c-.136.019-.233.019-.31.038-.174.039-.31.078-.387.174-.077.078-.116.233-.116.446v5.651c0 .213.039.349.116.445.077.078.213.136.387.175.097.019.213.038.33.038.135.02.27.02.425.039.155 0 .31.02.464.02h.484a6.98 6.98 0 001.142-.097 2.64 2.64 0 00.93-.33c.27-.154.464-.367.638-.638.155-.271.232-.62.232-1.026v-.135z"/><path d="M.903 0H64v44.613H.903z"/></g></svg>