<svg xmlns="http://www.w3.org/2000/svg" viewBox="0 0 61 27"><g fill="none"><path fill="#000268" d="M.05 5.131C.05 2.498 2.165.365 4.775.365h51.497c2.61 0 4.725 2.133 4.725 4.766v17.025c0 2.63-2.116 4.763-4.725 4.763H4.773C2.165 26.92.05 24.786.05 22.156V5.131z"/><path fill="#FFF" d="M1.989 5.293v16.703c0 1.644 1.324 2.977 2.953 2.977h26.98V2.316H4.943A2.967 2.967 0 001.99 5.293zm36.905 8.268c0 1.064-.52 1.795-1.378 1.795-.76 0-1.393-.731-1.393-1.705 0-1 .557-1.743 1.393-1.743.885 0 1.378.77 1.378 1.653zm-5.046 6.099h2.275v-3.626h.026c.431.794 1.292 1.089 2.087 1.089 1.96 0 3.01-1.64 3.01-3.613 0-1.614-1-3.37-2.821-3.37-1.036 0-1.996.422-2.454 1.359h-.025v-1.205h-2.099v9.366h.001zm10.506-4.804c0-.642.606-.883 1.378-.883.342 0 .671.024.962.037 0 .781-.544 1.577-1.404 1.577-.531 0-.936-.27-.936-.731zm4.59 2.114a8.33 8.33 0 01-.126-1.576v-2.486c0-2.037-1.454-2.768-3.136-2.768-.973 0-1.82.141-2.631.474l.04 1.565c.63-.36 1.365-.5 2.097-.5.82 0 1.492.242 1.506 1.153a6.556 6.556 0 00-1.063-.091c-1.214 0-3.401.244-3.401 2.281 0 1.449 1.162 2.1 2.465 2.1.936 0 1.568-.369 2.088-1.203h.025c0 .347.036.692.05 1.05h2.086zm1.023 2.691c.47.103.937.155 1.417.155 2.087 0 2.58-1.628 3.224-3.307l2.417-6.215h-2.277l-1.353 4.357h-.025l-1.417-4.357h-2.452l2.667 6.829c-.165.59-.594.923-1.15.923-.318 0-.595-.038-.898-.14l-.153 1.754v.001z"/><path fill="#FF0007" d="M7.548 13.575c0-.91.444-1.667 1.291-1.667 1.024 0 1.453.833 1.453 1.577 0 1.025-.645 1.716-1.453 1.716-.684 0-1.291-.588-1.291-1.626zm4.945-3.28h-2.064v1.204h-.023c-.481-.82-1.265-1.36-2.24-1.36-2.048 0-2.97 1.488-2.97 3.474 0 1.974 1.125 3.357 2.931 3.357.912 0 1.671-.36 2.214-1.14h.026v.358c0 1.307-.709 1.935-2.022 1.935-.949 0-1.531-.206-2.227-.55l-.114 1.82c.53.19 1.427.423 2.516.423 2.656 0 3.971-.886 3.971-3.628v-5.894h.002zm3.847-2.78h-2.276v1.69h2.276v-1.69zm-2.276 9.455h2.276v-6.676h-2.276v6.676zm8.614-6.752a4.859 4.859 0 00-.77-.078c-.986 0-1.556.538-1.948 1.384h-.025v-1.23H17.86v6.676h2.276v-2.82c0-1.308.596-2.089 1.658-2.089.265 0 .518 0 .77.077l.114-1.923v.002zm3.92 5.29c-1.05 0-1.48-.882-1.48-1.869 0-1 .43-1.884 1.48-1.884s1.48.884 1.48 1.883c0 .987-.43 1.87-1.48 1.87zm0 1.615c2.174 0 3.832-1.28 3.832-3.484 0-2.218-1.658-3.5-3.832-3.5-2.176 0-3.832 1.282-3.832 3.5 0 2.204 1.656 3.484 3.832 3.484z"/></g></svg>