<svg xmlns="http://www.w3.org/2000/svg"><g fill="none"><path fill="#000" d="M10.95 14.35a3.677 3.677 0 11-7.35 0 3.677 3.677 0 017.349 0h.001zM4.316 30.17V19.65h5.916v10.52H4.316zm16-29.485c16.365 0 18.807 10.483 18.807 16.73 0 10.84-6.68 16.81-18.807 16.81H.258V.685h20.058zM1.837 2.262v30.385h18.479c11.158 0 17.228-5.192 17.228-15.231 0-10.317-6.58-15.154-17.228-15.154H1.837z"/><path fill="#C06" d="M22.556 16.07v1.703H18.34v-6.835h4.08v1.702h-2.375v.792h2.246v1.702h-2.246v.935h2.51zm.818 1.704l2.064-6.839h2.424l2.063 6.839h-1.773l-.387-1.323h-2.23l-.386 1.323h-1.775zm2.659-3.023h1.233l-.563-1.934H26.6l-.566 1.934h-.001zm4.749-3.816h1.704v5.134h2.523c-.692-9.315-8.028-11.327-14.693-11.327h-7.107v6.198h1.053c1.917 0 3.108 1.298 3.108 3.388 0 2.157-1.163 3.445-3.108 3.445h-1.053v12.401h7.107c10.837 0 14.609-5.027 14.742-12.401H30.78v-6.838h.002zm-17.573 1.706v3.428h1.053c.73 0 1.404-.21 1.404-1.74 0-1.496-.75-1.688-1.403-1.688h-1.054z"/></g></svg>