<svg xmlns="http://www.w3.org/2000/svg" viewBox="0 0 54 30"><g fill="none" transform="translate(.968 .195)"><rect width="52.258" height="29.032" fill="#FFB3C7" rx="3.241"/><path fill="#0A0B09" d="M47.373 17.009c-.683 0-1.238.559-1.238 1.249 0 .69.555 1.249 1.238 1.249.684 0 1.238-.56 1.238-1.25s-.554-1.248-1.238-1.248zm-4.073-.966c0-.945-.8-1.71-1.787-1.71-.987 0-1.787.765-1.787 1.71 0 .944.8 1.71 1.787 1.71.987 0 1.787-.766 1.787-1.71zm.007-3.324h1.972v6.647h-1.972v-.424a3.436 3.436 0 01-1.955.608c-1.92 0-3.476-1.57-3.476-3.507s1.556-3.508 3.476-3.508c.725 0 1.398.226 1.955.61v-.426zm-15.784.866v-.866h-2.02v6.647h2.024v-3.103c0-1.047 1.125-1.61 1.905-1.61h.024V12.72c-.801 0-1.538.346-1.933.865zm-5.03 2.458c0-.945-.8-1.71-1.788-1.71-.987 0-1.787.765-1.787 1.71 0 .944.8 1.71 1.787 1.71.987 0 1.787-.766 1.787-1.71zm.006-3.324h1.972v6.647H22.5v-.424a3.436 3.436 0 01-1.955.608c-1.92 0-3.476-1.57-3.476-3.507s1.556-3.508 3.476-3.508c.725 0 1.398.226 1.955.61v-.426zm11.872-.179c-.788 0-1.534.247-2.032.928v-.749h-1.964v6.647h1.988v-3.493c0-1.01.672-1.506 1.48-1.506.867 0 1.366.523 1.366 1.493v3.506h1.97V15.14c0-1.547-1.22-2.599-2.808-2.599zm-20.177 6.826h2.065v-9.61h-2.065v9.61zm-9.068.003h2.186V9.755H5.126v9.614zm7.646-9.614a7.683 7.683 0 01-2.236 5.457l3.021 4.157h-2.7l-3.284-4.518.848-.64a5.538 5.538 0 002.212-4.456h2.139z"/></g></svg>