<svg xmlns="http://www.w3.org/2000/svg" preserveAspectRatio="none" viewBox="0 0 640 360"><g fill="none" fill-rule="evenodd"><path fill="#0B4A8E" d="M140.20384106 233.402844l3.68821192-.37211c.22172185 1.243945.67231788 2.15633 1.35059603 2.740734.6794702.583211 1.59496688.87422 2.74768212.87422 1.22066225 0 2.13973507-.258807 2.75960267-.776422.6186755-.518807.9274172-1.124679.9274172-1.818807 0-.444863-.1299338-.822936-.3886093-1.136606-.2598675-.312477-.7128477-.583211-1.36013243-.81578-.44344371-.151467-1.45192053-.423394-3.02662252-.814587-2.02768211-.500917-3.44860927-1.118715-4.26635761-1.852202-1.14913907-1.030458-1.72370861-2.287523-1.72370861-3.771192 0-.952936.27059603-1.846239.81298013-2.676331.54119206-.831284 1.32317881-1.464587 2.34238411-1.898715 1.02039735-.434129 2.25178808-.652385 3.69417218-.652385 2.35549665 0 4.12807945.518807 5.31894045 1.554036 1.1908609 1.036422 1.8154966 2.418716 1.8750993 4.148074l-3.7990729.149082c-.1621192-.966055-.5101986-1.660183-1.0442384-2.08477-.53284765-.423395-1.3327152-.635689-2.39960262-.635689-1.10145695 0-1.9621192.226606-2.58556291.679817-.40172186.289817-.60198676.678624-.60198676 1.165229 0 .444863.18834437.824129.56384106 1.141377.47682119.400733 1.63668874.819357 3.47960265 1.252293 1.84172188.434129 3.20423838.883762 4.08754968 1.351284.8821192.466331 1.5735099 1.104404 2.0729801 1.913028.4982782.811009.7486093 1.810459.7486093 3.000734 0 1.08055-.2992053 2.090734-.8976159 3.032936s-1.4435762 1.642293-2.5366887 2.100275c-1.0931126.457982-2.45562918.688165-4.08754971.688165-2.37456954 0-4.1984106-.552202-5.47152318-1.656605-1.27192053-1.104404-2.03245033-2.713303-2.28039735-4.829083M159.4149669 239.552202h3.6131126v-13.603486h-3.6131126v13.603486zm0-15.466422h3.6131126v-3.317982h-3.6131126v3.317982zM179.892053 239.552202h-3.6131126v-6.957982c0-1.471743-.0774834-2.423486-.2300662-2.855229-.1537749-.431743-.4017219-.769266-.7462252-1.008991-.3445033-.238532-.7593377-.358991-1.2433113-.358991-.6210596 0-1.1777483.171743-1.6712582.514037-.49351.342293-.830861.795504-1.0132451 1.360826-.1835761.564128-.2741721 1.607706-.2741721 3.131926v6.174404h-3.6131126v-13.603486h3.3520529v1.998899c1.1860928-1.556422 2.6809272-2.334037 4.4809272-2.334037.7939073 0 1.5198676.144312 2.1766887.43055.6568212.286239 1.1539073.652386 1.4912583 1.097248.337351.444863.5721855.949358.7045033 1.514679.1323179.564128.1990729 1.372752.1990729 2.424679v8.471468M187.1993377 232.457064c0 1.44789.2765563 2.508165.832053 3.179633.5543047.673853 1.2385431 1.008991 2.0527153 1.008991.8713907 0 1.6080794-.344679 2.2100662-1.034037.6007947-.689357.9023841-1.711468.9023841-3.065137 0-1.41211-.2884768-2.461652-.8642384-3.147431-.5769537-.684588-1.304106-1.028074-2.1850331-1.028074-.8558941 0-1.5615894.337523-2.1158941 1.008991-.5554967.673853-.832053 1.698349-.832053 3.077064zm-3.241192 7.989633l4.0970861.447248c.0691391.506881.2276821.855138.4756291 1.045963.3433113.271927.8833113.40789 1.62.40789.9429139 0 1.6498014-.140734 2.1218543-.422202.3158941-.18844.5566888-.491376.72-.91.110861-.30055.1668874-.850367.1668874-1.65422l.0107285-1.98578c-1.0656953 1.451468-2.4174834 2.176606-4.0577483 2.176606-1.8298013 0-3.2769537-.772844-4.3450331-2.32211-.8380133-1.22367-1.2564239-2.74789-1.2564239-4.570275 0-2.285138.5483444-4.03 1.6462252-5.236973 1.0978808-1.20578 2.4639735-1.809266 4.095894-1.809266 1.6831788 0 3.0719206.740642 4.1662252 2.219541v-1.884403h3.353245v12.228348c0 1.608899-.1323178 2.811101-.3981457 3.605413-.2646357.796697-.6365563 1.420459-1.1157616 1.87367-.4792053.453211-1.1181456.808624-1.9180132 1.065046-.7998675.256422-1.8107285.385229-3.0325828.385229-2.3090066 0-3.9468874-.398349-4.9136424-1.193853-.9667549-.795505-1.4495364-1.804496-1.4495364-3.026973 0-.120458.0047682-.265963.0131126-.438899zM201.0998675 239.552202h3.6131126v-18.784404h-3.6131126zM217.2927152 231.613853c-.0250331-1.059082-.2956291-1.862936-.811788-2.415137-.5149669-.55101-1.1419868-.827707-1.8810597-.827707-.7903311 0-1.4435761.292202-1.958543.873028-.5161589.580825-.7688742 1.371559-.7605298 2.369816h5.4119205zm-.1859602 3.653119l3.5761589.596331c-.4625165 1.310734-1.193245 2.310183-2.1909934 2.995963-.9977483.686973-2.2470198 1.029266-3.7454304 1.029266-2.3733775 0-4.1292716-.776422-5.2676822-2.328073-.9-1.242753-1.3494039-2.811101-1.3494039-4.707431 0-2.261285.5900662-4.034771 1.7725828-5.316881 1.1813245-1.28211 2.6749668-1.922569 4.4809271-1.922569 2.0300662 0 3.6309934.672661 4.8039735 2.016789 1.1729801 1.346514 1.7332451 3.406239 1.6819868 6.182752h-9.0512583c.0250331 1.071009.3182781 1.903487.878543 2.499817.5602649.593945 1.258808.89211 2.0956292.89211.5686093 0 1.0478145-.152661 1.4352318-.459174.3874172-.305322.6818543-.799083.8797351-1.4789zM232.6916556 239.552202v-18.784404h13.8957614v3.168899h-10.0954965v4.174312h9.3874175v3.167707h-9.3874175v5.105779h10.4674175v3.167707h-14.2676824M259.87404 239.552202v-2.037064c-.497086.72633-1.149139 1.303578-1.958543 1.731743-.809404.426972-1.662914.641651-2.561722.641651-.916689 0-1.736821-.20156-2.465166-.603486-.727152-.401927-1.254039-.967248-1.57947-1.693578-.32543-.727523-.48755-1.732936-.48755-3.016239v-8.626513h3.613113v6.256697c0 1.915413.065563 3.088991.199073 3.519541.132318.434129.373112.775229.723576 1.028074.350464.251651.793907.37688 1.332715.37688.6151 0 1.16702-.166972 1.653378-.505688.487549-.337523.820132-.756147 1.000132-1.257064.178808-.499725.269404-1.724587.269404-3.673395v-5.745045h3.613113v13.603486h-3.352053M271.166358 239.552202h-3.613113v-13.603486h3.352053v1.934495c.573377-.913578 1.088344-1.51945 1.546093-1.82.457748-.299358.976291-.449633 1.558013-.449633.820132 0 1.611656.227798 2.372185.682202l-1.099072 3.149816c-.607947-.392385-1.175365-.589174-1.697484-.589174-.506622 0-.934569.139541-1.286225.416239-.351656.279082-.628212.781192-.829669 1.507522-.201457.726331-.302781 2.249358-.302781 4.565505v4.206514M281.52649 232.750459c0 1.356055.320662 2.392477.963179 3.112844.642516.720367 1.43404 1.08055 2.376954 1.08055.941721 0 1.732052-.360183 2.369801-1.08055.637748-.720367.957218-1.766331.957218-3.13789 0-1.336973-.31947-2.367431-.957218-3.086606-.637749-.720367-1.42808-1.08055-2.369801-1.08055-.942914 0-1.734438.360183-2.376954 1.08055-.642517.719175-.963179 1.757982-.963179 3.111652zm-3.688212-.193211c0-1.199817.294437-2.361468.884503-3.484954.588875-1.122294 1.423312-1.979817 2.504504-2.571377 1.08-.591559 2.287549-.887339 3.620265-.887339 2.058675 0 3.74543.670275 5.061457 2.012018 1.314834 1.341743 1.972847 3.037707 1.972847 5.086698 0 2.065688-.665165 3.779541-1.993112 5.137981-1.327947 1.358441-3.000398 2.038257-5.016159 2.038257-1.246888 0-2.436557-.283853-3.567815-.847982-1.13245-.566513-1.993112-1.395412-2.581987-2.489082-.590066-1.09367-.884503-2.423486-.884503-3.99422zM307.447682 223.936697v5.366973h2.069404c1.490066 0 2.486623-.097798 2.989669-.29578.501854-.197982.896424-.508073 1.181324-.930275.284901-.421009.427947-.911193.427947-1.470551 0-.688165-.200264-1.255871-.600794-1.703119-.40053-.447248-.907153-.72633-1.519868-.83844-.451788-.085872-1.357748-.128808-2.721457-.128808h-1.826225zm-3.799073 15.615505v-18.784404h6.081855c2.304238 0 3.807417.095413 4.507152.282661 1.075232.281468 1.975232.895688 2.701192 1.840275.72596.943394 1.088344 2.163486 1.088344 3.659083 0 1.153302-.208609 2.121743-.62702 2.910091-.417218.784771-.948874 1.402569-1.592582 1.851009-.643709.449633-1.298146.745413-1.963312.890918-.904768.180092-2.213642.269541-3.926622.269541h-2.469934v7.080826h-3.799073zM329.377881 233.030734c-.461325.155046-1.189669.338716-2.186225.553394-.996557.213487-1.64861.424588-1.953775.629725-.469669.335138-.702119.759725-.702119 1.273762 0 .50688.18596.943394.560264 1.313119.375497.368532.852318.553394 1.432848.553394.647285 0 1.263576-.214678 1.852451-.642844.433907-.326789.72-.725137.855894-1.197431.09298-.308899.140662-.896881.140662-1.763945v-.719174zm-4.842119-2.944679l-3.241192-.59633c.367152-1.31789.99894-2.292294 1.895364-2.925597.897616-.633302 2.230331-.95055 3.998145-.95055 1.605696 0 2.802517.190826 3.58808.570092.785563.382844 1.339867.865871 1.659338 1.451468.320662.585596.481589 1.662568.481589 3.228532l-.036954 4.210091c0 1.197432.057219 2.082386.171656 2.650092.115629.568899.331391 1.178349.647285 1.828349h-3.576159c-.095364-.234954-.209801-.584404-.346888-1.047156-.059602-.211101-.102516-.34945-.126357-.417431-.615099.599908-1.271921 1.050734-1.971656 1.351284-.699735.299358-1.444768.449633-2.238675.449633-1.39947 0-2.503312-.381651-3.309139-1.142569-.805828-.76211-1.208742-1.72578-1.208742-2.889816 0-.769266.183576-1.456239.549536-2.059725.368345-.603486.883312-1.066239 1.544901-1.387064.662781-.319633 1.617616-.602294 2.864503-.842019 1.681987-.316055 2.847815-.610642 3.497484-.884954v-.363761c0-.701285-.171656-1.201009-.514967-1.500367-.344503-.298165-.991788-.447248-1.945431-.447248-.643708 0-1.145562.127615-1.506755.380459-.361192.254037-.653245.698899-.874966 1.334587zM335.510993 225.948716h3.836027l3.260265 9.658165 3.185165-9.658165h3.725166l-5.66702 15.484312c-.317086.796697-.618675 1.403761-.904768 1.823578-.286093.418623-.616292.759724-.988212 1.019724-.373113.261193-.828477.466331-1.372053.610642-.543576.146698-1.157484.21945-1.841722.21945-.692583 0-1.374437-.072752-2.040795-.218257l-.336159-2.820642c.566226.113303 1.078808.168165 1.532981.168165.842781 0 1.463841-.249266 1.867947-.745413.404106-.498532.712847-1.131835.927417-1.899908l-5.184239-13.641651M352.335629 225.948716h3.315099v1.858165c1.190861-1.462202 2.608212-2.193303 4.253246-2.193303.872582 0 1.630728.178899 2.273245.53789.642516.360183 1.169404.904037 1.57947 1.630367.59841-.72633 1.245695-1.270184 1.937086-1.630367.693775-.358991 1.431655-.53789 2.21841-.53789 1.001325 0 1.847683.202752 2.540265.610642.692583.404312 1.211126 1.001835 1.553245 1.790184.246755.580825.370729 1.521835.370729 2.823027v8.714771h-3.613113v-7.791652c0-1.352477-.123973-2.224311-.370728-2.617889-.333775-.51523-.845166-.771652-1.535364-.771652-.504239 0-.978676.153853-1.42212.462752-.443443.3089-.762914.759725-.95841 1.354863-.196689.593945-.295629 1.533761-.295629 2.817064v6.546514h-3.613113v-7.469633c0-1.328624-.063179-2.182569-.191921-2.568991-.127549-.385229-.32543-.671468-.594834-.859908-.269404-.187248-.63298-.282661-1.094305-.282661-.554304 0-1.053774.150275-1.497218.449633-.443444.299358-.76053.732294-.953643 1.296422-.19192.565321-.287284 1.50156-.287284 2.811101v6.624037h-3.613113v-13.603486M384.822649 231.613853c-.026225-1.059082-.295629-1.862936-.81298-2.415137-.513775-.55101-1.141987-.827707-1.88106-.827707-.789139 0-1.443576.292202-1.957351.873028-.516159.580825-.768874 1.371559-.76053 2.369816h5.411921zm-.18596 3.653119l3.576159.596331c-.463709 1.310734-1.193245 2.310183-2.190994 2.995963-.99894.686973-2.24702 1.029266-3.746622 1.029266-2.372186 0-4.12808-.776422-5.267682-2.328073-.9-1.242753-1.349404-2.811101-1.349404-4.707431 0-2.261285.59245-4.034771 1.772582-5.316881 1.182517-1.28211 2.674967-1.922569 4.48212-1.922569 2.030066 0 3.629801.672661 4.802781 2.016789 1.17298 1.346514 1.734437 3.406239 1.683179 6.182752h-9.05245c.026225 1.071009.31947 1.903487.879735 2.499817.559073.593945 1.257616.89211 2.095629.89211.568609 0 1.046622-.152661 1.43404-.459174.389801-.305322.683046-.799083.880927-1.4789zM404.478411 239.552202h-3.613113v-6.957982c0-1.471743-.077483-2.423486-.228874-2.855229-.153775-.431743-.402914-.769266-.747417-1.008991-.344504-.238532-.759338-.358991-1.243312-.358991-.619867 0-1.177748.171743-1.670066.514037-.49351.342293-.830861.795504-1.014437 1.360826-.182384.564128-.274172 1.607706-.274172 3.131926v6.174404h-3.613113v-13.603486h3.352053v1.998899c1.187285-1.556422 2.680927-2.334037 4.480927-2.334037.793908 0 1.52106.144312 2.176689.43055.656821.286239 1.155099.652386 1.49245 1.097248.337351.444863.570994.949358.703312 1.514679.13351.564128.199073 1.372752.199073 2.424679v8.471468M415.13894 225.948716v2.869541h-2.459205v5.504128c0 1.113945.022649 1.763945.069139 1.947615.045298.184862.150199.33633.31351.456789.164503.119266.362384.180092.597219.180092.329006 0 .801059-.115688 1.423311-.345872l.315894 2.788441c-.833245.35899-1.776159.539082-2.828742.539082-.647285 0-1.227814-.109725-1.746357-.327982-.517351-.217064-.897616-.500917-1.140795-.847981-.241987-.345872-.408874-.814587-.501854-1.404954-.077484-.419817-.114437-1.267798-.114437-2.542753v-5.946605h-1.639073v-2.869541h1.639073v-2.720459l3.613112-2.124129v4.844588h2.459205M417.171391 235.71422l3.613112-.559358c.153775.695321.464901 1.222477.933378 1.583854.469669.361376 1.125298.540275 1.969271.540275.930994 0 1.630729-.171743 2.099206-.51523.315894-.24211.474437-.562935.474437-.96844 0-.274312-.08702-.503303-.258676-.682202-.181192-.172936-.584106-.331559-1.211126-.478257-2.919337-.645229-4.770596-1.233211-5.550198-1.763945-1.082384-.735871-1.622384-1.760367-1.622384-3.068715 0-1.183119.466092-2.176606 1.401854-2.980459.936954-.805046 2.387682-1.208165 4.353377-1.208165 1.871524 0 3.261457.301743 4.172186.904037.909536.603486 1.536556 1.494403 1.881059 2.673945l-3.390198.633302c-.146623-.528348-.425563-.935045-.835629-1.216513-.411259-.282661-.996557-.423395-1.755894-.423395-.958411 0-1.646226.132385-2.059868.400734-.277748.18844-.414834.432936-.414834.733486 0 .258808.119205.478257.36.659542.32543.239724 1.45192.579633 3.377086 1.018532 1.925165.438899 3.269801.975596 4.033907 1.611284.753377.644037 1.13245 1.54211 1.13245 2.693028 0 1.253486-.522119 2.331651-1.562781 3.233302-1.043047.902844-2.583179 1.35367-4.623974 1.35367-1.851258 0-3.317483-.375688-4.397483-1.123486-1.08-.750184-1.785695-1.765138-2.118278-3.050826M451.863709 232.136239l-2.624901-6.969909-2.536689 6.969909h5.16159zm6.967549 7.415963h-4.091126l-1.623576-4.248257h-7.567152l-1.547285 4.248257h-4.020794l7.272715-18.784404h3.995761l7.581457 18.784404zM465.034702 239.552202h-3.613113v-13.603486h3.352053v1.934495c.573378-.913578 1.087153-1.51945 1.546093-1.82.456556-.299358.975099-.449633 1.558013-.449633.820133 0 1.610464.227798 2.372186.682202l-1.099073 3.149816c-.609139-.392385-1.175364-.589174-1.697484-.589174-.507814 0-.935761.139541-1.287417.416239-.351655.279082-.628212.781192-.828477 1.507522-.202649.726331-.302781 2.249358-.302781 4.565505v4.206514M480.683974 231.613853c-.026226-1.059082-.296822-1.862936-.811789-2.415137-.516159-.55101-1.143178-.827707-1.881059-.827707-.791523 0-1.443576.292202-1.958543.873028-.516159.580825-.770066 1.371559-.76053 2.369816h5.411921zm-.185961 3.653119l3.576159.596331c-.462516 1.310734-1.193245 2.310183-2.190993 2.995963-.997749.686973-2.24702 1.029266-3.745431 1.029266-2.373377 0-4.130463-.776422-5.268874-2.328073-.9-1.242753-1.349404-2.811101-1.349404-4.707431 0-2.261285.591258-4.034771 1.773775-5.316881 1.180132-1.28211 2.674967-1.922569 4.480927-1.922569 2.028874 0 3.629802.672661 4.803974 2.016789 1.171788 1.346514 1.733245 3.406239 1.681986 6.182752h-9.05245c.026225 1.071009.31947 1.903487.878543 2.499817.561457.593945 1.26.89211 2.095629.89211.569802 0 1.047815-.152661 1.436424-.459174.387417-.305322.680662-.799083.879735-1.4789zM495.45947 233.030734c-.460132.155046-1.189669.338716-2.186225.553394-.996556.213487-1.647417.424588-1.953775.629725-.469669.335138-.702119.759725-.702119 1.273762 0 .50688.18596.943394.561457 1.313119.374305.368532.851126.553394 1.431656.553394.647284 0 1.263576-.214678 1.85245-.642844.433907-.326789.72-.725137.855894-1.197431.09298-.308899.140662-.896881.140662-1.763945v-.719174zm-4.842119-2.944679l-3.241192-.59633c.367152-1.31789.99894-2.292294 1.895364-2.925597.897616-.633302 2.230331-.95055 3.998146-.95055 1.605695 0 2.802516.190826 3.588079.570092.785563.382844 1.339868.865871 1.659338 1.451468.320662.585596.481589 1.662568.481589 3.228532l-.036953 4.210091c0 1.197432.057218 2.082386.171655 2.650092.11563.568899.331391 1.178349.646093 1.828349h-3.574967c-.095364-.234954-.208609-.584404-.346887-1.047156-.058411-.211101-.102517-.34945-.126358-.417431-.615099.599908-1.270728 1.050734-1.970463 1.351284-.699735.299358-1.445961.449633-2.239868.449633-1.39947 0-2.503311-.381651-3.309139-1.142569-.804636-.76211-1.20755-1.72578-1.20755-2.889816 0-.769266.182385-1.456239.549537-2.059725.367152-.603486.882119-1.066239 1.543708-1.387064.662782-.319633 1.617616-.602294 2.864504-.842019 1.681987-.316055 2.847814-.610642 3.497483-.884954v-.363761c0-.701285-.171655-1.201009-.514967-1.500367-.343311-.298165-.991788-.447248-1.94543-.447248-.643709 0-1.145563.127615-1.506755.380459-.36.254037-.653245.698899-.874967 1.334587zM219.9927152 146.9576147h-24.6015894c0-4.0395413-.4744371-6.7504587-1.418543-8.130367-1.4638411-2.0418349-5.5049007-3.0639449-12.1184106-3.0639449-6.4227815 0-10.6807947.5879816-12.7585431 1.7651376-2.0765563 1.1807339-3.1160265 3.7485321-3.1160265 7.7022018 0 3.5791743.9202649 5.9358716 2.765563 7.0653211 1.3219867.8014679 3.0683443 1.2725688 5.2462251 1.4133028l4.9613245.3506422c10.6331126.706055 17.2740398 1.2033945 19.9227815 1.486055 8.4087417.8479817 14.5049007 3.0854128 18.2872848 6.7111009 2.9765562 2.8289908 4.7515231 6.5262386 5.3177483 11.0917431.3313907 2.7311927.495894 5.8213762.495894 9.2550459 0 7.9144954-.7545695 13.7108257-2.2660927 17.3842202-2.7393377 6.7397248-8.8927152 10.9963303-18.4672847 12.7841284-4.0112583.7561468-10.1479471 1.1342202-18.4017219 1.1342202-13.7777483 0-23.3797351-.8205504-28.801192-2.47-6.65403978-2.020367-11.04079475-6.113578-13.16384111-12.2772477-1.18251656-3.4312844-1.76781457-9.1453211-1.76781457-17.1444954h24.60158938c0 .8921101.0023841 1.5743119.0023841 2.0442202 0 4.2685321 1.2266225 7.0140367 3.6739073 8.2365137 1.6962914.8432111 3.7442384 1.2856881 6.1521854 1.3381652h9.044106c4.6156291 0 7.5611921-.2361468 8.8319205-.7108257 2.2613245-.8897248 3.7454305-2.3221101 4.454702-4.3043119.3766888-1.2200918.5638411-2.7991743.5638411-4.7312844 0-4.3281652-1.5794702-6.9615597-4.7324503-7.9061468-1.1789404-.3733028-6.6647683-.8933028-16.4562914-1.5528441-7.8627815-.5617431-13.3247683-1.1020183-16.3835762-1.6255963-8.054702-1.5075229-13.42251655-4.6072477-16.1010596-9.3134862-2.35430464-3.9989909-3.53205298-10.0493578-3.53205298-18.1427523 0-6.1636697.6365563-11.1060551 1.90847682-14.823578 1.27311258-3.7187156 3.32463576-6.54174313 6.15576159-8.47266056 4.14715227-2.96376146 9.45417217-4.70385321 15.91390727-5.22385321 5.3749669-.4687156 11.3376159-.70844037 17.8962914-.70844037 10.3255629 0 17.684106.59394496 22.0708609 1.77110092 10.7058278 2.87788991 16.0581457 10.93908262 16.0581457 24.18596332 0 1.0865137-.0798675 2.7109174-.2384106 4.8827523M354.623179 165.7193578h16.486093c5.227152-.1884404 8.406357-.590367 9.550728-1.2200917 1.562781-.8599083 2.611788-2.5809175 3.133907-5.1630276.333775-1.7186238.500663-4.2733027.500663-7.6676146 0-4.1576147-.331391-7.2394496-.997749-9.2526606-.951258-2.8194495-3.229271-4.5368807-6.837616-5.1606422-.712847-.0942202-2.421059-.1443119-5.12702-.1443119h-16.709006v28.6083486zm-26.444504 48.1870642v-98.30862383h49.268742c6.757749 0 11.91457.55220183 15.457351 1.65541284 8.103576 2.54036697 13.54053 7.74155963 16.325166 15.60238529 1.437616 4.1254129 2.156424 10.336789 2.156424 18.6305505 0 9.9718349-.797484 17.1385321-2.37457 21.5012844-3.160132 8.6277064-9.665165 13.5975229-19.487682 14.8855963-1.155099.193211-6.069934.3661468-14.744503.5044954l-4.390331.1466973h-15.766093v25.3822018h-26.444504zM462.583841 177.7640367l-12.390199-42.6149541-12.024238 42.6149541h24.414437zm5.252185 19.1517431h-35.357483l-4.750331 16.9906422h-27.36l29.522384-98.30862383h39.890861l29.884768 98.30862383h-26.78543l-5.044769-16.9906422z"/><path fill="#F6BC25" d="M291.679205 129.4290826c10.907285 0 20.64159 5.0270642 27.04053 12.9010091l5.700397-12.2283486c-8.915364-8.43091741-21.049271-13.6285321-34.43245-13.6285321-20.837086 0-38.661854 12.5909174-45.977483 30.4140367h-11.1158944l-6.5634437 14.0781651h14.2998671c-.107284 1.3059633-.176423 2.6131193-.176423 3.9465138 0 1.6136697.083443 3.2082569.243178 4.7837615h-7.186887l-6.5622516 14.0829358h17.4027816c7.524238 17.3722935 25.126093 29.5684403 45.636556 29.5684403 10.336292 0 19.92755-3.0985321 27.869007-8.3915596v-17.2589908c-6.395364 7.2847706-15.749404 11.8884403-26.177484 11.8884403-12.189933 0-22.91245-6.2888991-29.156424-15.8063302h36.442252l6.562252-14.0829358h-48.366358c-.249139-1.6947707-.382649-3.4265138-.382649-5.1904587 0-1.1926606.061987-2.3733945.176424-3.5398166h52.639868l6.562251-14.0781651h-54.649669c6.043709-10.4357798 17.290729-17.4581651 30.172053-17.4581651"/><path fill="#0B4A8E" d="M261.507152 147.3106422h54.649669l-.382649-.6022936-6.559867 14.0793578.380265-.2433027h-53.020133l-.04053.382844c-.118013 1.1878899-.177616 2.3924771-.177616 3.5779817 0 1.7412844.131126 3.5111926.387418 5.2536697l.054834.3613761h48.728742l-.380265-.6011009-6.563444 14.0793578.381457-.2433027h-37.22543l.430331.6511926c6.56702 10.020734 17.59947 15.9947707 29.509271 15.9947707 10.124106 0 19.78212-4.3806422 26.496954-12.026789l-.741457-.2778899v17.2589908l.18596-.3482569c-8.165563 5.4397248-17.718675 8.316422-27.63298 8.316422-19.777351 0-37.537748-11.506789-45.246755-29.3155963l-.112053-.252844h-17.6805296l.3862251.6034862 6.5598676-14.0841284-.3838411.245688h7.651788l-.04649-.4675229c-.158543-1.5910092-.240795-3.1891743-.240795-4.7408257 0-1.1938532.058411-2.473578.176424-3.9095413l.036954-.4579816h-14.7576161l.3802649.6022935 6.5646358-14.0817431-.381457.2456881h11.3996024l.106093-.2623853c3.611921-8.7994496 9.755762-16.3012844 17.763974-21.70045873 8.202516-5.526789 17.82596-8.44880734 27.823708-8.44880734 12.803841 0 24.92702 4.79449541 34.14159 13.50807337l-.094173-.4866055-5.696821 12.2319266.709272-.0882569c-6.74702-8.2985321-16.719735-13.0584403-27.368345-13.0584403-12.526092 0-24.2249 6.7707339-30.540397 17.6704587l-.367152.6344954h.735496zm30.172053-17.4593578c10.39351 0 20.129007 4.6466055 26.711523 12.7459633l.425563.523578.288477-.6106422 5.698013-12.2295413.12755-.2778899-.219338-.2099083c-9.370728-8.86146785-21.702516-13.74064216-34.723311-13.74064216-10.16702 0-19.951391 2.97211009-28.295761 8.59669724-8.147683 5.48981652-14.396424 13.12642202-18.06914 22.07853212l.387418-.2623853h-11.3864904l-.113245.2433027L225.6692715 161.39h14.9614565l-.420794-.4579817c-.120398 1.4610092-.177616 2.7610092-.177616 3.9799083 0 1.5802752.079867 3.2058716.243179 4.8255046l.421986-.4615596h-7.4539068l-.1132451.2433027-6.5646357 14.0793578-.2777484.6011009h18.063179l-.386225-.2552293c7.8449 18.1165137 25.910463 29.8248624 46.022781 29.8248624 10.082384 0 19.797616-2.9244037 28.102649-8.460734l.187152-.1252293v-18.6090826l-.73788.843211c-6.552716 7.4624771-15.978278 11.7417431-25.860398 11.7417431-11.626092 0-22.393907-5.8380734-28.804768-15.6155046l-.351656.6559633h36.711656l.113245-.2409174 6.563444-14.0841284.280132-.5987156h-49.030331l.419603.3589908c-.250331-1.7043119-.379073-3.4288991-.379073-5.129633 0-1.1580734.058411-2.3328441.175232-3.4968808l-.421987.3816514h52.912848l.110861-.2433028 6.562251-14.0817431.282517-.5999082h-55.316027l.362384.6333027c6.162914-10.6385321 17.586358-17.2470642 29.809669-17.2470642z"/></g></svg>