<svg xmlns="http://www.w3.org/2000/svg" viewBox="0 0 79 15"><path fill="#EE7F00" d="M26.043.097c-1.06 0-2.09.244-3.063.712-1.388.663-2.64 1.766-3.66 3.238a14.443 14.443 0 00-1.687 3.298c-.838 2.33-.828 4.223.03 5.472.49.702 1.503 1.55 3.564 1.55h.009c3.758 0 6.56-2.486 8.333-7.403.472-1.297 1.089-3.726-.038-5.365C28.837.604 27.67.097 26.043.097zm22.648 0a6.991 6.991 0 00-3.064.712c-1.387.663-2.639 1.766-3.66 3.238a14.443 14.443 0 00-1.685 3.298c-.84 2.33-.83 4.223.028 5.472.492.702 1.503 1.55 3.565 1.55h.01c3.756 0 6.559-2.486 8.332-7.403.472-1.297 1.088-3.726-.039-5.365C51.485.604 50.32.097 48.691.097zM13.983.292c-1.234 0-2.438 0-3.507.556-1.08.556-2.023 1.658-2.755 3.873-.154.476-.24.887-.25 1.238-.011.361.047.664.183.927.162.322.433.624.76.878.337.254.732.459 1.166.595.02 0 .24.068.52.146.27.078.588.176.79.235.116.039.25.086.367.156.123.07.224.175.288.302.046.087.07.184.068.282a.832.832 0 01-.058.333c-.097.302-.25.497-.54.614-.288.117-.712.156-1.358.166H1.594l-1.271 3.54h8.63c.81 0 2.294 0 3.729-.615 1.425-.614 2.794-1.843 3.37-4.292.223-.926.156-1.678-.2-2.263-.357-.585-1.002-1.014-1.946-1.288 0 0-.213-.058-.463-.136-.25-.068-.53-.156-.674-.195a.95.95 0 01-.54-.39.774.774 0 01-.076-.625.916.916 0 01.442-.546c.231-.127.53-.195.877-.195h5.018c.04-.049.069-.108.107-.156.916-1.317 2.023-2.37 3.237-3.122h-7.851V.292zm22.55 0c-2.234 0-3.89 1.141-4.682 3.287l-3.785 10.555h4.152l1.946-5.424h3.67l1.04-2.907h-3.66l.588-1.677c.125-.304.414-.537.848-.537h4.324c.04-.049.069-.108.106-.156.916-1.317 2.217-2.37 3.43-3.122h-7.975v-.02h-.001zm19.277.01l-4.98 13.84h4.228l1.81-4.877c.087.206 1.157 4.869 1.157 4.869h4.44s-.808-3.434-1.406-4.819c-.153-.36-.308-.751-.53-1.092 1.252-.469 3.073-1.483 3.825-3.541.462-1.259.434-2.283-.078-3.034C63.651.74 62.388.292 60.395.292h-4.586v.01h.001zm8.67 0c.268.21.501.46.694.741.49.722.683 1.57.568 2.546h2.514l-3.795 10.555h3.786l3.795-10.555h4.865L78.09.302H64.48zM58.595 3.16h.693c1.272 0 1.753.38 1.32 1.56-.405 1.103-1.137 1.786-2.525 1.786h-.722l1.233-3.346zm-33.554.068c1.301 0 1.6.761.453 3.922-1.175 3.248-2.023 4.058-3.304 4.058-1.242 0-1.686-.8-.52-4.03.886-2.409 2.013-3.95 3.371-3.95zm22.658 0c1.3 0 1.6.761.453 3.922-1.166 3.248-2.023 4.058-3.295 4.058-1.242 0-1.686-.8-.52-4.03.867-2.409 1.994-3.95 3.362-3.95z"/></svg>